# 3ds Max Wavefront OBJ Exporter v0.97b - (c)2007 guruware
# File Created: 28.02.2013 00:04:50

#
# object Box001
#

v  -5.0000 -5.0000 0.0000
v  -5.0000 -1.6667 0.0000
v  -1.6667 -1.6667 0.0000
v  -1.6667 -5.0000 0.0000
v  1.6667 -1.6667 0.0000
v  1.6667 -5.0000 0.0000
v  5.0000 -1.6667 0.0000
v  5.0000 -5.0000 0.0000
v  -5.0000 1.6667 0.0000
v  -1.6667 1.6667 0.0000
v  1.6667 1.6667 0.0000
v  5.0000 1.6667 0.0000
v  -5.0000 5.0000 0.0000
v  -1.6667 5.0000 0.0000
v  1.6667 5.0000 0.0000
v  5.0000 5.0000 0.0000
v  -5.0000 -5.0000 10.0000
v  -1.6667 -5.0000 10.0000
v  -1.6667 -1.6667 10.0000
v  -5.0000 -1.6667 10.0000
v  1.6667 -5.0000 10.0000
v  1.6667 -1.6667 10.0000
v  5.0000 -5.0000 10.0000
v  5.0000 -1.6667 10.0000
v  -1.6667 1.6667 10.0000
v  -5.0000 1.6667 10.0000
v  1.6667 1.6667 10.0000
v  5.0000 1.6667 10.0000
v  -1.6667 5.0000 10.0000
v  -5.0000 5.0000 10.0000
v  1.6667 5.0000 10.0000
v  5.0000 5.0000 10.0000
v  -1.6667 -5.0000 2.5000
v  -5.0000 -5.0000 2.5000
v  1.6667 -5.0000 2.5000
v  5.0000 -5.0000 2.5000
v  -1.6667 -5.0000 5.0000
v  -5.0000 -5.0000 5.0000
v  1.6667 -5.0000 5.0000
v  5.0000 -5.0000 5.0000
v  -1.6667 -5.0000 7.5000
v  -5.0000 -5.0000 7.5000
v  1.6667 -5.0000 7.5000
v  5.0000 -5.0000 7.5000
v  5.0000 -1.6667 2.5000
v  5.0000 1.6667 2.5000
v  5.0000 5.0000 2.5000
v  5.0000 -1.6667 5.0000
v  5.0000 1.6667 5.0000
v  5.0000 5.0000 5.0000
v  5.0000 -1.6667 7.5000
v  5.0000 1.6667 7.5000
v  5.0000 5.0000 7.5000
v  1.6667 5.0000 2.5000
v  -1.6667 5.0000 2.5000
v  -5.0000 5.0000 2.5000
v  1.6667 5.0000 5.0000
v  -1.6667 5.0000 5.0000
v  -5.0000 5.0000 5.0000
v  1.6667 5.0000 7.5000
v  -1.6667 5.0000 7.5000
v  -5.0000 5.0000 7.5000
v  -5.0000 1.6667 2.5000
v  -5.0000 -1.6667 2.5000
v  -5.0000 1.6667 5.0000
v  -5.0000 -1.6667 5.0000
v  -5.0000 1.6667 7.5000
v  -5.0000 -1.6667 7.5000
# 68 vertices

vn 0.0000 0.0000 -1.0000
vn 0.0000 0.0000 1.0000
vn 0.0000 -1.0000 0.0000
vn 1.0000 0.0000 0.0000
vn 0.0000 1.0000 0.0000
vn -1.0000 0.0000 0.0000
# 6 vertex normals

vt 1.0000 0.0000 0.0000
vt 1.0000 0.3333 0.0000
vt 0.6667 0.3333 0.0000
vt 0.6667 0.0000 0.0000
vt 0.3333 0.3333 0.0000
vt 0.3333 0.0000 0.0000
vt 0.0000 0.3333 0.0000
vt 0.0000 0.0000 0.0000
vt 1.0000 0.6667 0.0000
vt 0.6667 0.6667 0.0000
vt 0.3333 0.6667 0.0000
vt 0.0000 0.6667 0.0000
vt 1.0000 1.0000 0.0000
vt 0.6667 1.0000 0.0000
vt 0.3333 1.0000 0.0000
vt 0.0000 1.0000 0.0000
vt 0.3333 0.2500 0.0000
vt 0.0000 0.2500 0.0000
vt 0.6667 0.2500 0.0000
vt 1.0000 0.2500 0.0000
vt 0.3333 0.5000 0.0000
vt 0.0000 0.5000 0.0000
vt 0.6667 0.5000 0.0000
vt 1.0000 0.5000 0.0000
vt 0.3333 0.7500 0.0000
vt 0.0000 0.7500 0.0000
vt 0.6667 0.7500 0.0000
vt 1.0000 0.7500 0.0000
# 28 texture coords

g Box001
f 1/1/1 2/2/1 3/3/1 
f 3/3/1 4/4/1 1/1/1 
f 4/4/1 3/3/1 5/5/1 
f 5/5/1 6/6/1 4/4/1 
f 6/6/1 5/5/1 7/7/1 
f 7/7/1 8/8/1 6/6/1 
f 2/2/1 9/9/1 10/10/1 
f 10/10/1 3/3/1 2/2/1 
f 3/3/1 10/10/1 11/11/1 
f 11/11/1 5/5/1 3/3/1 
f 5/5/1 11/11/1 12/12/1 
f 12/12/1 7/7/1 5/5/1 
f 9/9/1 13/13/1 14/14/1 
f 14/14/1 10/10/1 9/9/1 
f 10/10/1 14/14/1 15/15/1 
f 15/15/1 11/11/1 10/10/1 
f 11/11/1 15/15/1 16/16/1 
f 16/16/1 12/12/1 11/11/1 
f 17/8/2 18/6/2 19/5/2 
f 19/5/2 20/7/2 17/8/2 
f 18/6/2 21/4/2 22/3/2 
f 22/3/2 19/5/2 18/6/2 
f 21/4/2 23/1/2 24/2/2 
f 24/2/2 22/3/2 21/4/2 
f 20/7/2 19/5/2 25/11/2 
f 25/11/2 26/12/2 20/7/2 
f 19/5/2 22/3/2 27/10/2 
f 27/10/2 25/11/2 19/5/2 
f 22/3/2 24/2/2 28/9/2 
f 28/9/2 27/10/2 22/3/2 
f 26/12/2 25/11/2 29/15/2 
f 29/15/2 30/16/2 26/12/2 
f 25/11/2 27/10/2 31/14/2 
f 31/14/2 29/15/2 25/11/2 
f 27/10/2 28/9/2 32/13/2 
f 32/13/2 31/14/2 27/10/2 
f 1/8/3 4/6/3 33/17/3 
f 33/17/3 34/18/3 1/8/3 
f 4/6/3 6/4/3 35/19/3 
f 35/19/3 33/17/3 4/6/3 
f 6/4/3 8/1/3 36/20/3 
f 36/20/3 35/19/3 6/4/3 
f 34/18/3 33/17/3 37/21/3 
f 37/21/3 38/22/3 34/18/3 
f 33/17/3 35/19/3 39/23/3 
f 39/23/3 37/21/3 33/17/3 
f 35/19/3 36/20/3 40/24/3 
f 40/24/3 39/23/3 35/19/3 
f 38/22/3 37/21/3 41/25/3 
f 41/25/3 42/26/3 38/22/3 
f 37/21/3 39/23/3 43/27/3 
f 43/27/3 41/25/3 37/21/3 
f 39/23/3 40/24/3 44/28/3 
f 44/28/3 43/27/3 39/23/3 
f 42/26/3 41/25/3 18/15/3 
f 18/15/3 17/16/3 42/26/3 
f 41/25/3 43/27/3 21/14/3 
f 21/14/3 18/15/3 41/25/3 
f 43/27/3 44/28/3 23/13/3 
f 23/13/3 21/14/3 43/27/3 
f 8/8/4 7/6/4 45/17/4 
f 45/17/4 36/18/4 8/8/4 
f 7/6/4 12/4/4 46/19/4 
f 46/19/4 45/17/4 7/6/4 
f 12/4/4 16/1/4 47/20/4 
f 47/20/4 46/19/4 12/4/4 
f 36/18/4 45/17/4 48/21/4 
f 48/21/4 40/22/4 36/18/4 
f 45/17/4 46/19/4 49/23/4 
f 49/23/4 48/21/4 45/17/4 
f 46/19/4 47/20/4 50/24/4 
f 50/24/4 49/23/4 46/19/4 
f 40/22/4 48/21/4 51/25/4 
f 51/25/4 44/26/4 40/22/4 
f 48/21/4 49/23/4 52/27/4 
f 52/27/4 51/25/4 48/21/4 
f 49/23/4 50/24/4 53/28/4 
f 53/28/4 52/27/4 49/23/4 
f 44/26/4 51/25/4 24/15/4 
f 24/15/4 23/16/4 44/26/4 
f 51/25/4 52/27/4 28/14/4 
f 28/14/4 24/15/4 51/25/4 
f 52/27/4 53/28/4 32/13/4 
f 32/13/4 28/14/4 52/27/4 
f 16/8/5 15/6/5 54/17/5 
f 54/17/5 47/18/5 16/8/5 
f 15/6/5 14/4/5 55/19/5 
f 55/19/5 54/17/5 15/6/5 
f 14/4/5 13/1/5 56/20/5 
f 56/20/5 55/19/5 14/4/5 
f 47/18/5 54/17/5 57/21/5 
f 57/21/5 50/22/5 47/18/5 
f 54/17/5 55/19/5 58/23/5 
f 58/23/5 57/21/5 54/17/5 
f 55/19/5 56/20/5 59/24/5 
f 59/24/5 58/23/5 55/19/5 
f 50/22/5 57/21/5 60/25/5 
f 60/25/5 53/26/5 50/22/5 
f 57/21/5 58/23/5 61/27/5 
f 61/27/5 60/25/5 57/21/5 
f 58/23/5 59/24/5 62/28/5 
f 62/28/5 61/27/5 58/23/5 
f 53/26/5 60/25/5 31/15/5 
f 31/15/5 32/16/5 53/26/5 
f 60/25/5 61/27/5 29/14/5 
f 29/14/5 31/15/5 60/25/5 
f 61/27/5 62/28/5 30/13/5 
f 30/13/5 29/14/5 61/27/5 
f 13/8/6 9/6/6 63/17/6 
f 63/17/6 56/18/6 13/8/6 
f 9/6/6 2/4/6 64/19/6 
f 64/19/6 63/17/6 9/6/6 
f 2/4/6 1/1/6 34/20/6 
f 34/20/6 64/19/6 2/4/6 
f 56/18/6 63/17/6 65/21/6 
f 65/21/6 59/22/6 56/18/6 
f 63/17/6 64/19/6 66/23/6 
f 66/23/6 65/21/6 63/17/6 
f 64/19/6 34/20/6 38/24/6 
f 38/24/6 66/23/6 64/19/6 
f 59/22/6 65/21/6 67/25/6 
f 67/25/6 62/26/6 59/22/6 
f 65/21/6 66/23/6 68/27/6 
f 68/27/6 67/25/6 65/21/6 
f 66/23/6 38/24/6 42/28/6 
f 42/28/6 68/27/6 66/23/6 
f 62/26/6 67/25/6 26/15/6 
f 26/15/6 30/16/6 62/26/6 
f 67/25/6 68/27/6 20/14/6 
f 20/14/6 26/15/6 67/25/6 
f 68/27/6 42/28/6 17/13/6 
f 17/13/6 20/14/6 68/27/6 
# 132 faces

